<svg xmlns="http://www.w3.org/2000/svg" width="1441" height="387"><g fill="#002d42"><path d="M493.555 244.002c-26.41 0-43.773-18.812-43.773-43.531 0-23.765 18.083-43.772 43.524-43.772 14.713 0 23.761 4.085 32.442 11.448l-9.417 11.223c-6.506-5.552-12.889-9.058-23.634-9.058-15.55 0-27.361 13.521-27.361 29.901 0 17.498 11.446 30.268 28.686 30.268 7.965 0 15.207-2.528 20.385-6.394v-15.784h-21.59v-12.901h35.946v35.456c-8.327 7.103-20.259 13.144-35.208 13.144M602.154 242.547l-20.747-29.421h-18.563v29.421H548.01V158.15h37.625c19.419 0 31.35 10.233 31.35 26.768 0 13.979-8.328 22.422-20.143 25.669l22.787 31.961h-17.475zm-17.733-70.907h-21.578v28.342h21.698c10.622 0 17.378-5.551 17.378-14.232 0-9.287-6.522-14.11-17.498-14.11M675.426 244.002c-25.925 0-44.012-19.665-44.012-43.527 0-23.893 18.337-43.776 44.254-43.776 25.933 0 44.016 19.642 44.016 43.515s-18.337 43.788-44.258 43.788m0-73.69c-16.759 0-28.458 13.386-28.458 29.901 0 16.524 11.938 30.168 28.701 30.168 16.766 0 28.462-13.394 28.462-29.906-.001-16.536-11.95-30.163-28.705-30.163M783.435 157.895h12.531l20.736 62.819 20.143-62.568h15.549l-29.406 84.993H810.2l-20.748-60.635-20.731 60.635h-12.785l-29.425-84.993h16.031l20.146 62.568zM868.377 158.149h14.826v84.397h-14.826zM964.701 158.149H979.3v84.398h-12.415l-46.543-60.043v60.043h-14.597v-84.398h13.743l45.213 58.361zM1040.988 244.002c-26.392 0-43.771-18.812-43.771-43.531 0-23.765 18.099-43.772 43.531-43.772 14.721 0 23.75 4.085 32.431 11.448l-9.396 11.223c-6.504-5.552-12.909-9.058-23.635-9.058-15.55 0-27.362 13.521-27.362 29.901 0 17.498 11.446 30.268 28.69 30.268 7.957 0 15.194-2.528 20.376-6.394v-15.784h-21.586v-12.901h35.927v35.456c-8.306 7.103-20.242 13.144-35.205 13.144M1092.812 197.33h16.038v16.516h-16.038zM1142.703 206.977v35.57h-14.83v-84.398h14.83v35.08h40.281v-35.08h14.834v84.398h-14.834v-35.57zM1273.62 242.547l-20.732-29.421h-18.582v29.421h-14.83V158.15h37.616c19.426 0 31.364 10.233 31.364 26.768 0 13.979-8.315 22.422-20.135 25.669l22.776 31.961h-17.477zm-17.73-70.907h-21.584v28.342h21.723c10.606 0 17.356-5.551 17.356-14.232-.001-9.287-6.522-14.11-17.495-14.11M395.093 199.624c0-74.284-60.2-134.472-134.468-134.472-70.732 0-134.46 56.704-134.46 134.472 0 17.381 3.414 33.935 9.42 49.183 20.821 46.418 61.744 72.111 111.602 72.111 52.965 0 92.18-41.763 92.18-96.593 0-42.903-27.664-77.298-73.399-77.298-41.836 0-66.4 28.208-66.4 57.779 0 27.1 18.997 49.278 47.62 49.545 9.585.078 19.008-2.583 26.742-7.825l-6.006-19.988-20.911 5.801-6.245-21.422 48.011-13.599 17.057 58.237-5.857 5.865c-13.971 13.99-33.591 20.993-53.436 20.993-41.348 0-75.246-31.135-75.246-76.638 0-47.34 38.39-86.903 95.292-86.903 56.588 0 101.018 46.537 101.018 108.02 0 43.407-19.031 77.137-51.127 94.659l-.056.296c46.38-21.221 78.669-67.91 78.669-122.223"/></g></svg>